HIERARCHY
ROOT Bip001_Pelvis
{
  OFFSET 34.4345 95.6767 -26.8758
  CHANNELS 6 Xposition Yposition Zposition Zrotation Xrotation Yrotation
  JOINT Bip001_Spine
  {
    OFFSET 1.4188e-005 10.2191 -0.0116013
    CHANNELS 3 Zrotation Xrotation Yrotation
    JOINT Bip001_L_Thigh
    {
      OFFSET 11.0458 -10.2192 0.0116197
      CHANNELS 3 Zrotation Xrotation Yrotation
      JOINT Bip001_L_Calf
      {
        OFFSET -0.707118 -44.0221 0.360014
        CHANNELS 3 Zrotation Xrotation Yrotation
        JOINT Bip001_L_Foot
        {
          OFFSET -0.651902 -40.5938 -3.56146
          CHANNELS 3 Zrotation Xrotation Yrotation
          JOINT Bip001_L_Toe0
          {
            OFFSET 0.0530839 -10.2181 13.1504
            CHANNELS 3 Zrotation Xrotation Yrotation
            End Site
            {
              OFFSET -1.02532e-005 0 7.55606
            }
          }
        }
      }
    }
    JOINT Bip001_R_Thigh
    {
      OFFSET -11.0458 -10.2191 0.0115893
      CHANNELS 3 Zrotation Xrotation Yrotation
      JOINT Bip001_R_Calf
      {
        OFFSET 0.706994 -44.0221 0.35984
        CHANNELS 3 Zrotation Xrotation Yrotation
        JOINT Bip001_R_Foot
        {
          OFFSET 0.651786 -40.5938 -3.5613
          CHANNELS 3 Zrotation Xrotation Yrotation
          JOINT Bip001_R_Toe0
          {
            OFFSET -0.0531479 -10.2181 13.1504
            CHANNELS 3 Zrotation Xrotation Yrotation
            End Site
            {
              OFFSET -1.02894e-005 0 7.55606
            }
          }
        }
      }
    }
    JOINT Bip001_Spine1
    {
      OFFSET 1.87041e-005 14.5736 1.08638
      CHANNELS 3 Zrotation Xrotation Yrotation
      JOINT Bip001_Spine2
      {
        OFFSET 2.24614e-005 14.5058 -1.69078
        CHANNELS 3 Zrotation Xrotation Yrotation
        JOINT Bip001_Neck
        {
          OFFSET 2.20278e-005 15.3945 -0.489414
          CHANNELS 3 Zrotation Xrotation Yrotation
          JOINT Bip001_L_Clavicle
          {
            OFFSET 6.06036 -0.000579998 0.00836775
            CHANNELS 3 Zrotation Xrotation Yrotation
            JOINT Bip001_L_UpperArm
            {
              OFFSET 11.5509 -0.0600302 0.00193952
              CHANNELS 3 Zrotation Xrotation Yrotation
              JOINT Bip001_L_Forearm
              {
                OFFSET 25.9523 0.0806089 -2.15551
                CHANNELS 3 Zrotation Xrotation Yrotation
                JOINT Bip001_L_Hand
                {
                  OFFSET 32.2475 0.153767 1.63968
                  CHANNELS 3 Zrotation Xrotation Yrotation
                  JOINT Bip001_L_Finger0
                  {
                    OFFSET 6.04639 -2.20976 5.90322
                    CHANNELS 3 Zrotation Xrotation Yrotation
                    End Site
                    {
                      OFFSET 4.22375 -1.43895 0.606485
                    }
                  }
                  JOINT Bip001_L_Finger1
                  {
                    OFFSET 11.0826 -0.704819 -0.198153
                    CHANNELS 3 Zrotation Xrotation Yrotation
                    End Site
                    {
                      OFFSET 6.20027 -0.397518 -0.0787166
                    }
                  }
                }
              }
            }
          }
          JOINT Bip001_R_Clavicle
          {
            OFFSET -6.06037 -0.000563197 0.00835105
            CHANNELS 3 Zrotation Xrotation Yrotation
            JOINT Bip001_R_UpperArm
            {
              OFFSET -11.5509 -0.0599978 0.00190698
              CHANNELS 3 Zrotation Xrotation Yrotation
              JOINT Bip001_R_Forearm
              {
                OFFSET -25.9523 0.0806822 -2.15589
                CHANNELS 3 Zrotation Xrotation Yrotation
                JOINT Bip001_R_Hand
                {
                  OFFSET -32.2475 0.153859 1.63989
                  CHANNELS 3 Zrotation Xrotation Yrotation
                  JOINT Bip001_R_Finger0
                  {
                    OFFSET -6.04641 -2.20976 5.90317
                    CHANNELS 3 Zrotation Xrotation Yrotation
                    End Site
                    {
                      OFFSET -4.22376 -1.43895 0.60647
                    }
                  }
                  JOINT Bip001_R_Finger1
                  {
                    OFFSET -11.0826 -0.704794 -0.198182
                    CHANNELS 3 Zrotation Xrotation Yrotation
                    End Site
                    {
                      OFFSET -6.20028 -0.397504 -0.0787333
                    }
                  }
                }
              }
            }
          }
          JOINT Bip001_Head
          {
            OFFSET 1.09673e-005 11.2744 2.05948
            CHANNELS 3 Zrotation Xrotation Yrotation
            End Site
            {
              OFFSET 2.89576e-005 20.8808 -2.77728e-005
            }
          }
        }
      }
    }
  }
}
MOTION
Frames:	13
Frame Time:	0.04
33.818 95.7516 -26.4152 0.649178 0.088912 0.28256 -0.344015 1.85272 -0.317523 4.58131 -1.95082 8.81744 0.453115 7.73451 4.03065 -0.540569 -5.37377 0.0476505 2.47922 -4.32709 -1.95639 -4.83644 -1.87632 -0.963619 0.833922 9.52853 -0.928657 -6.47386 -8.63319 -1.1374 2.65074 -8.93607 2.88524 -0.68561 3.72532 -0.649912 -0.685129 3.72532 -0.650195 2.95877 -4.07018 -2.00277 -26.3341 5.4214 -1.90789 -56.5802 39.8972 4.37682 11.9628 -9.45083 -23.6431 7.10292 0.347761 -2.55797 1.59028e-015 0 -3.18055e-015 -5.29669e-031 -9.54167e-015 -3.18055e-015 21.0937 12.3297 22.1853 60.589 33.3312 -6.64931 -23.9297 12.422 15.2467 3.55451 -6.09493 6.63334 -0 0 7.95139e-016 1.59028e-015 3.18056e-015 -0 -1.65531 -6.23109 -0.901802 
33.8078 95.7532 -26.3759 0.649122 0.0963266 0.294421 -0.33983 1.85272 -0.317523 4.5786 -1.95943 8.82963 0.450311 7.76772 3.94294 -0.535973 -5.36986 0.0476502 2.40694 -4.31396 -1.86723 -4.82575 -1.85649 -0.994012 0.809367 9.51813 -0.928629 -6.48358 -8.64518 -1.15351 2.64704 -8.91252 2.86894 -0.669244 3.72533 -0.636159 -0.670184 3.72533 -0.635842 3.03617 -4.0534 -2.04868 -26.4562 5.39537 -1.90781 -56.5198 39.8823 4.3582 11.9918 -9.31802 -23.6735 7.35651 0.256751 -2.63207 4.77083e-015 0 -0 1.59028e-015 3.18056e-015 -0 21.0047 12.3003 22.1546 60.5926 33.3317 -6.64116 -23.8872 12.3605 15.2362 3.37796 -6.23686 6.56416 0 0 -7.95139e-016 1.59028e-015 0 -1.59028e-015 -1.82246 -6.31156 -0.901164 
33.8092 95.757 -26.3346 0.656914 0.102561 0.268813 -0.337289 1.85272 -0.317461 4.52612 -1.88132 8.72487 0.485225 7.64046 4.04898 -0.465572 -5.27181 0.0476426 2.43951 -4.3964 -1.89671 -4.83728 -1.85212 -0.991463 0.797785 9.54189 -0.923082 -6.45656 -8.64409 -1.12715 2.64703 -8.91403 2.86841 -0.668485 3.72535 -0.619323 -0.668955 3.72535 -0.619282 3.0369 -4.08389 -2.05181 -26.4135 5.42121 -1.90789 -56.568 39.9211 4.32387 12.0144 -9.33595 -23.6733 7.38877 0.249466 -2.6542 1.59028e-015 -9.54166e-015 -0 3.18055e-015 -6.36111e-015 3.18055e-015 20.9919 12.31 22.0971 60.5853 33.4142 -6.61222 -23.8871 12.3198 15.1504 3.36771 -6.31037 6.55015 1.59028e-015 -3.18055e-015 7.95139e-016 -0 0 7.95139e-016 -1.82448 -6.2333 -0.900503 
33.8148 95.753 -26.311 0.676163 0.163778 0.228452 -0.335308 1.85272 -0.316776 4.49213 -1.90058 8.74459 0.502514 7.61782 4.08775 -0.503425 -5.29648 0.0476445 2.44728 -4.39996 -1.90287 -4.87933 -1.91032 -0.928155 0.836544 9.57183 -0.933265 -6.47857 -8.67221 -1.16244 2.64571 -8.9153 2.86823 -0.661962 3.70721 -0.61929 -0.66283 3.7072 -0.619265 3.06089 -4.07731 -2.00198 -26.4364 5.42522 -1.9079 -56.5895 39.8842 4.33868 12.0043 -9.36906 -23.7562 7.33807 0.335178 -2.63471 -1.59028e-015 -9.54166e-015 -0 -3.18055e-015 -9.54167e-015 -3.18055e-015 20.955 12.2735 22.0333 60.56 33.4664 -6.59904 -23.9156 12.3406 15.0636 3.30591 -6.39482 6.52038 0 0 -0 0 3.18056e-015 -0 -1.88358 -6.17179 -0.835239 
33.8125 95.7532 -26.2865 0.678095 0.227158 0.17151 -0.334588 1.84807 -0.314663 4.49328 -1.94991 8.65078 0.496151 7.66722 4.27315 -0.677985 -5.39676 0.0476523 2.37445 -4.25743 -1.86256 -4.87732 -1.95407 -0.847212 0.8367 9.55431 -0.960265 -6.48078 -8.67122 -1.15778 2.63985 -8.89123 2.86623 -0.659522 3.69793 -0.619005 -0.659521 3.69791 -0.619004 3.08239 -4.09484 -1.98667 -26.4708 5.44148 -1.90636 -56.5354 39.8364 4.32553 12.0072 -9.25932 -23.7349 7.38757 0.261341 -2.68888 -1.59028e-015 -6.36111e-015 -0 -1.59028e-015 -6.36111e-015 -0 20.9927 12.3325 22.1197 60.4188 33.4184 -6.66198 -23.8926 12.2169 15.0027 3.1963 -6.50772 6.4736 -1.59028e-015 0 -0 -4.41391e-032 3.18056e-015 7.95139e-016 -1.89444 -6.1171 -0.812045 
33.8654 95.7618 -26.2852 0.800239 0.352682 0.0374918 -0.35733 1.82952 -0.296074 4.26075 -1.929 8.44981 0.595643 7.39845 4.56262 -0.483905 -5.09451 0.0476292 2.46348 -4.40738 -1.97229 -5.05514 -2.17456 -0.702541 0.926673 9.72533 -0.999836 -6.47174 -8.72588 -1.1716 2.62927 -8.86011 2.83674 -0.70579 3.66083 -0.581302 -0.705769 3.66084 -0.58126 3.11412 -4.05637 -2.02479 -26.4991 5.40571 -1.95089 -56.5141 39.8731 4.31491 11.9647 -9.31982 -23.6689 7.31912 0.238139 -2.6553 1.59028e-015 6.36111e-015 3.18055e-015 1.59028e-015 9.54167e-015 6.36111e-015 20.9697 12.3132 22.166 60.312 33.4686 -6.67093 -23.881 12.1284 14.8531 3.12645 -6.57503 6.40215 -1.59028e-015 6.36111e-015 1.59028e-015 -3.18055e-015 6.36111e-015 1.59028e-015 -1.89721 -6.15732 -0.842831 
33.8772 95.7626 -26.254 0.86964 0.453268 -0.0398496 -0.365374 1.81807 -0.306796 4.15449 -1.90041 8.49538 0.651832 7.22217 4.63888 -0.642066 -5.11731 0.0476309 2.42023 -4.35309 -1.90958 -5.14543 -2.29537 -0.649612 0.963091 9.79048 -1.01754 -6.4837 -8.79678 -1.16657 2.62831 -8.8609 2.85376 -0.721467 3.63803 -0.59945 -0.721457 3.63803 -0.599763 3.03307 -4.08124 -1.99378 -26.3746 5.44033 -1.95125 -56.5872 39.94 4.31804 12.0234 -9.28942 -23.6053 7.21072 0.220451 -2.63265 4.77083e-015 -3.18055e-015 -3.18055e-015 3.18055e-015 -3.18056e-015 -0 21.0086 12.3343 22.1896 60.2194 33.5932 -6.63046 -23.9044 12.1667 14.6557 3.09659 -6.65011 6.38831 -3.18055e-015 0 1.59028e-015 -1.59028e-015 -3.18056e-015 1.59028e-015 -1.82848 -6.09461 -0.841281 
33.8563 95.7631 -26.2115 0.849528 0.4854 -0.105468 -0.353127 1.81582 -0.312391 4.21713 -1.91374 8.34282 0.578839 7.29317 4.92604 -0.846553 -5.27832 0.0476431 2.36078 -4.21568 -1.88144 -5.11871 -2.29724 -0.658195 0.944973 9.76589 -0.979838 -6.4736 -8.78882 -1.12444 2.62629 -8.86227 2.85277 -0.696844 3.63351 -0.613482 -0.69692 3.6335 -0.613347 2.98369 -4.09681 -1.98798 -26.3677 5.45236 -1.9261 -56.582 39.9468 4.35054 12.0282 -9.23318 -23.6119 7.19336 0.258459 -2.66093 0 6.36111e-015 -0 1.76556e-031 3.18056e-015 -3.18055e-015 21.0899 12.3429 22.1363 59.981 33.5857 -6.60513 -23.9038 12.2205 14.5394 3.63145 -6.16024 6.60101 -3.18055e-015 0 -7.95139e-016 -3.18055e-015 3.18056e-015 -0 -1.78555 -6.09096 -0.860377 
33.7936 95.7628 -26.1277 0.74806 0.39721 -0.138059 -0.336813 1.84867 -0.314778 4.36177 -1.86068 8.52942 0.579175 7.43177 4.76586 -0.921236 -5.37342 0.0476505 2.33843 -4.21354 -1.86143 -4.96522 -2.10599 -0.764393 0.856445 9.58893 -0.954709 -6.42317 -8.75071 -1.00648 2.62408 -8.86319 2.85134 -0.657629 3.69912 -0.615222 -0.657644 3.69911 -0.615143 3.09927 -4.13103 -2.04323 -26.44 5.47129 -1.92489 -56.5841 39.9787 4.33218 11.9777 -9.3639 -23.5856 7.3479 0.354653 -2.65184 -1.59028e-015 6.36111e-015 -3.18055e-015 -3.18055e-015 6.36111e-015 -3.18055e-015 21.0096 12.3873 22.1235 59.7483 33.5857 -6.55599 -23.8692 12.1554 14.3875 3.60199 -6.11143 6.5682 0 0 -0 -1.59028e-015 0 7.95139e-016 -1.84243 -6.13588 -0.875038 
33.7845 95.7676 -26.0853 0.756507 0.463367 -0.201037 -0.336282 1.84136 -0.317385 4.34885 -1.85382 8.56329 0.614262 7.38744 4.84266 -1.13942 -5.47826 0.0476587 2.27367 -4.08569 -1.81236 -4.97498 -2.13477 -0.846136 0.846624 9.56177 -0.927856 -6.39123 -8.76603 -0.900851 2.62061 -8.85197 2.8498 -0.64961 3.6845 -0.618345 -0.649612 3.68448 -0.618355 3.03648 -4.1833 -2.07223 -26.3414 5.51313 -1.89818 -56.6421 39.9957 4.34064 12.0742 -9.2574 -23.5619 7.28047 0.356944 -2.66075 -0 -3.18055e-015 -0 -0 -3.18056e-015 -0 20.9626 12.4031 22.0832 59.7235 33.7149 -6.52995 -23.9297 12.2267 14.1109 3.63287 -6.18569 6.58576 -1.59028e-015 -6.36111e-015 -7.95139e-016 -8.82782e-032 -6.36111e-015 -7.95139e-016 -1.75278 -6.05807 -0.931014 
33.7959 95.763 -26.0681 0.82292 0.584336 -0.256141 -0.341062 1.82489 -0.32031 4.25007 -1.90077 8.5469 0.66354 7.31492 4.92817 -1.27419 -5.43889 0.0470825 2.31382 -4.05142 -1.78032 -5.06726 -2.31154 -0.895131 0.87432 9.71036 -0.926682 -6.38192 -8.85266 -0.83083 2.6082 -8.83779 2.87107 -0.671045 3.65166 -0.639331 -0.671498 3.65166 -0.639338 2.96271 -4.21212 -2.04425 -26.3134 5.54801 -1.87851 -56.4917 39.9943 4.3023 12.072 -9.19547 -23.5829 7.22417 0.290617 -2.75294 1.59028e-015 3.18055e-015 -0 3.18055e-015 3.18056e-015 -0 21.0583 12.4588 22.1469 59.5824 33.561 -6.67114 -24.0132 12.2879 13.9812 3.69128 -6.2437 6.72457 1.59028e-015 -3.18055e-015 -7.95139e-016 4.77083e-015 -3.18056e-015 -1.59028e-015 -1.6905 -5.9807 -0.934829 
33.7914 95.7498 -26.0101 0.855238 0.537372 -0.277007 -0.344041 1.8354 -0.329618 4.19006 -1.85876 8.68586 0.743913 7.3684 4.82845 -1.22323 -5.45799 0.0444704 2.31982 -4.10786 -1.82671 -5.10099 -2.28803 -0.992312 0.85523 9.81496 -0.919436 -6.34918 -8.95968 -0.723465 2.60053 -8.80646 2.85262 -0.679875 3.67271 -0.64953 -0.680554 3.67269 -0.649044 2.91596 -4.3097 -2.06686 -26.2936 5.65814 -1.93572 -56.3911 39.9451 4.31744 11.8571 -9.46215 -23.6649 7.40239 0.302531 -2.73627 -1.76556e-031 3.18055e-015 3.18055e-015 1.59028e-015 3.18056e-015 3.18055e-015 21.0937 12.5592 22.137 59.445 32.5259 -6.87719 -24.0807 11.7813 14.0474 3.34494 -6.27197 7.39735 1.59028e-015 -3.18055e-015 -0 1.59028e-015 0 -7.95139e-016 -1.70026 -5.9153 -0.96825 
33.7656 95.7523 -25.8994 0.953642 0.380327 -0.206174 -0.373978 1.86051 -0.387245 4.18787 -1.62362 9.36572 0.733411 7.31333 4.2602 -1.37031 -5.53598 0.0418014 2.36099 -4.03945 -1.96253 -5.13248 -2.07032 -1.28651 0.742617 9.82428 -0.820017 -6.31119 -9.06247 -0.519645 2.61628 -8.85098 2.86395 -0.735836 3.72367 -0.76253 -0.735439 3.72366 -0.762745 2.87834 -4.27524 -2.01141 -25.9553 5.63981 -1.96951 -56.5169 39.888 4.34682 11.7814 -9.47657 -23.6989 7.55569 0.241766 -2.76669 7.95139e-015 9.54166e-015 -3.18055e-015 7.95139e-015 6.36111e-015 -0 21.4166 12.4676 21.7432 58.9502 29.3259 -7.00517 -23.8135 9.35842 14.1645 -1.47489 -6.84191 7.39596 -5.29669e-031 9.54166e-015 3.18055e-015 -3.18055e-015 9.54167e-015 1.59028e-015 -1.64517 -5.95922 -0.934246 
